PathFileType	4	(X/Y/Z)	5_coords_data.trc
DataRate	CameraRate	NumFrames	NumMarkers	Units	OrigDataRate	OrigDataStartFrame	OrigNumFrames
30.0	30.0	7	21	m	30.0	1	68
Frame#	Time	THUMB_TIP	THUMB_IP	THUMB_MCP	THUMB_CMC	INDEX_TIP	INDEX_DIP	INDEX_PIP	INDEX_MCP	MIDDLE_TIP	MIDDLE_DIP	MIDDLE_PIP	MIDDLE_MCP	RING_TIP	RING_DIP	RING_PIP	RING_MCP	PINKY_TIP	PINKY_DIP	PINKY_PIP	PINKY_MCP	WRIST
X1	Y1	Z1	X2	Y2	Z2	X3	Y3	Z3	X4	Y4	Z4	X5	Y5	Z5	X6	Y6	Z6	X7	Y7	Z7	X8	Y8	Z8	X9	Y9	Z9	X10	Y10	Z10	X11	Y11	Z11	X12	Y12	Z12	X13	Y13	Z13	X14	Y14	Z14	X15	Y15	Z15	X16	Y16	Z16	X17	Y17	Z17	X18	Y18	Z18	X19	Y19	Z19	X20	Y20	Z20	X21	Y21	Z21
0	0.0	-0.024642999649047852	-0.12362000274658203	1.03031005859375	-0.006508699893951416	-0.11049800109863281	1.0413800048828126	-0.0014405200481414791	-0.09421240234375	1.06756005859375	-0.01584440040588379	-0.07143299865722656	1.0739599609375	-0.009515979766845702	-0.19461900329589843	1.046719970703125	-0.011632599830627442	-0.17739100646972655	1.058780029296875	-0.016041900634765623	-0.15980999755859376	1.0699300537109375	-0.02677899932861328	-0.13002400207519532	1.092	-0.01828969955444336	-0.0877301025390625	1.0524300537109375	-0.017850400924682618	-0.10762200164794922	1.0518399658203126	-0.020798799514770507	-0.1328919982910156	1.0546500244140624	-0.04325849914550781	-0.12721800231933594	1.0893599853515625	-0.014970600128173828	-0.09409040069580078	1.04018994140625	-0.026893600463867188	-0.11141000366210937	1.0415899658203125	-0.038903800964355466	-0.13211300659179687	1.043699951171875	-0.0571599006652832	-0.11773600006103516	1.0751500244140626	-0.07940029907226563	-0.16674000549316406	1.0348900146484374	-0.07294960021972656	-0.14802699279785156	1.0418299560546875	-0.06766020202636719	-0.1319459991455078	1.049550048828125	-0.05780149841308594	-0.10960700225830078	1.0556099853515626	-0.04111199951171875	-0.05430239868164063	1.0966199951171876
1	0.03333333333333333	-0.024482900619506837	-0.12376000213623047	1.0310899658203125	-0.0072464199066162105	-0.11111100006103515	1.04293994140625	-0.00199900996685028	-0.09474240112304687	1.0668299560546874	-0.017381399154663087	-0.07182949829101562	1.0759599609375	-0.008939299583435058	-0.19461000061035155	1.04575	-0.011341699600219727	-0.17674899291992188	1.0583599853515624	-0.01670429992675781	-0.16027699279785157	1.0715899658203125	-0.02560409927368164	-0.13005999755859374	1.090449951171875	-0.016009899139404298	-0.0885001983642578	1.0513199462890626	-0.018715299606323243	-0.10912400054931641	1.051300048828125	-0.021042999267578126	-0.13455599975585938	1.055260009765625	-0.04459159851074219	-0.12820199584960937	1.088449951171875	-0.016850200653076172	-0.09309839630126954	1.0418299560546875	-0.026171199798583983	-0.11076499938964844	1.0415899658203125	-0.03860469818115234	-0.13239700317382813	1.0447900390625	-0.0556781005859375	-0.12016999816894532	1.07427001953125	-0.07941230010986328	-0.1667270050048828	1.0350799560546875	-0.07321949768066406	-0.14811300659179688	1.0425699462890625	-0.06745909881591797	-0.13270199584960937	1.0493199462890626	-0.05836949920654297	-0.10993399810791016	1.0574200439453125	-0.042653499603271486	-0.055353500366210937	1.0958299560546876
2	0.06666666666666667	-0.024340599060058594	-0.12435099792480468	1.03143994140625	-0.007074100017547607	-0.11167400360107421	1.043530029296875	-0.001957749962806701	-0.09542030334472656	1.0671700439453125	-0.017360300064086915	-0.07238520050048829	1.076239990234375	-0.009053810119628906	-0.19513999938964843	1.045949951171875	-0.011413100242614747	-0.17733200073242186	1.0585999755859374	-0.016706199645996095	-0.16085899353027344	1.07172998046875	-0.02556649971008301	-0.1309010009765625	1.0903699951171875	-0.01599090003967285	-0.08910630035400391	1.0518399658203126	-0.018536500930786133	-0.109822998046875	1.05177001953125	-0.02093989944458008	-0.1351060028076172	1.055489990234375	-0.044697101593017576	-0.12873300170898438	1.08872998046875	-0.016778499603271484	-0.09367870330810547	1.042300048828125	-0.02602359962463379	-0.1113239974975586	1.0418800048828125	-0.03851160049438476	-0.13294200134277342	1.0450699462890625	-0.05582229995727539	-0.12076999664306641	1.0744200439453124	-0.07924720001220703	-0.16726699829101563	1.035199951171875	-0.07309619903564453	-0.14869999694824218	1.04275	-0.0673946990966797	-0.13330299377441407	1.0495999755859375	-0.05830099868774414	-0.11053299713134766	1.0577900390625	-0.0426077995300293	-0.05583290100097656	1.0961800537109374
3	0.1	-0.024250999450683593	-0.12474400329589844	1.0316800537109374	-0.006866189956665039	-0.11210399627685547	1.0438399658203126	-0.001470190048217773	-0.09580629730224609	1.0676500244140625	-0.017339700698852538	-0.07278730010986328	1.0763599853515624	-0.009091690063476562	-0.1955299987792969	1.0460699462890626	-0.01146269989013672	-0.1777270050048828	1.058739990234375	-0.016751699447631836	-0.1613730010986328	1.07206005859375	-0.02553000068664551	-0.13128599548339845	1.0906199951171875	-0.015962100028991698	-0.08962319946289063	1.052469970703125	-0.018479299545288087	-0.11008399963378906	1.0519100341796874	-0.02105220031738281	-0.13547500610351562	1.0556800537109374	-0.04472539901733399	-0.12924600219726562	1.0890799560546875	-0.016604600906372072	-0.09405970001220704	1.0425400390625	-0.02591670036315918	-0.11178199768066406	1.042239990234375	-0.038440399169921875	-0.1333699951171875	1.0453699951171875	-0.05576990127563477	-0.12125499725341797	1.0747099609375	-0.07898020172119141	-0.16777200317382812	1.0352900390625	-0.07288849639892578	-0.14906300354003907	1.0428499755859375	-0.0673187026977539	-0.13380299377441407	1.0499200439453125	-0.0582515983581543	-0.1109260025024414	1.0581600341796875	-0.04256809997558594	-0.05627080154418945	1.0964200439453125
4	0.13333333333333333	-0.02412969970703125	-0.12505999755859376	1.032	-0.006849699974060058	-0.1124749984741211	1.043969970703125	-0.001339290022850036	-0.09604940032958985	1.067949951171875	-0.01735129928588867	-0.07305760192871094	1.0768399658203125	-0.008974340438842774	-0.19567599487304688	1.0460699462890626	-0.01139150047302246	-0.17794500732421875	1.0588199462890624	-0.01669540023803711	-0.16166499328613282	1.0722099609375	-0.025253000259399413	-0.1316860046386719	1.09056005859375	-0.015821900367736817	-0.08987989807128906	1.0526600341796875	-0.0183346004486084	-0.11033799743652344	1.0523800048828125	-0.020820899963378905	-0.13590499877929688	1.055800048828125	-0.044595901489257815	-0.12960699462890626	1.0891300048828125	-0.016470600128173828	-0.09435340118408203	1.04293994140625	-0.025801599502563475	-0.11205699920654297	1.0425999755859374	-0.038350299835205076	-0.1336529998779297	1.0457099609375	-0.0558577995300293	-0.12141200256347656	1.0749200439453126	-0.07877290344238282	-0.16812699890136718	1.03543994140625	-0.07274259948730469	-0.14948599243164062	1.043	-0.06716690063476563	-0.1340590057373047	1.050050048828125	-0.05808829879760742	-0.11114399719238281	1.058239990234375	-0.0426427001953125	-0.056642200469970705	1.09681005859375
5	0.16666666666666666	-0.023883800506591796	-0.12521199798583985	1.032280029296875	-0.006582190036773681	-0.11269300079345704	1.04425	-0.001214609980583191	-0.09642970275878907	1.0681700439453126	-0.01701919937133789	-0.07345929718017578	1.077219970703125	-0.008726380348205566	-0.19573899841308592	1.0461500244140625	-0.011147700309753417	-0.17805900573730468	1.05897998046875	-0.016480300903320314	-0.1618489990234375	1.0723599853515624	-0.025124799728393554	-0.13187100219726564	1.090949951171875	-0.015555399894714356	-0.09005999755859374	1.0527099609375	-0.018052900314331054	-0.11062799835205078	1.052530029296875	-0.020578399658203125	-0.13606100463867188	1.0561800537109376	-0.0444375	-0.12977499389648436	1.0893599853515625	-0.01627630043029785	-0.09458730316162109	1.0430799560546875	-0.025600700378417968	-0.11219499969482422	1.0429000244140625	-0.03808639907836914	-0.133802001953125	1.0458399658203126	-0.055618198394775394	-0.12155300140380859	1.0753499755859375	-0.07841130065917969	-0.16836000061035156	1.035449951171875	-0.07247879791259766	-0.1496820068359375	1.0431600341796874	-0.06693699645996094	-0.13434500122070311	1.0501199951171876	-0.058014400482177736	-0.11154100036621094	1.058449951171875	-0.04253310012817383	-0.05680670166015625	1.097199951171875
6	0.2	-0.023682100296020508	-0.12537799835205077	1.03243994140625	-0.006415500164031983	-0.11275599670410157	1.0445400390625	-0.00110817003250122	-0.09656449890136719	1.068300048828125	-0.01691990089416504	-0.07357659912109375	1.0772099609375	-0.008420900344848633	-0.19573199462890625	1.0461500244140625	-0.010903800010681152	-0.17810699462890625	1.059050048828125	-0.016252199172973634	-0.16191099548339843	1.0724599609375	-0.025012399673461912	-0.13214999389648438	1.0911199951171875	-0.015459400177001953	-0.09007260131835937	1.0529100341796875	-0.01783139991760254	-0.11072799682617188	1.052780029296875	-0.02038710021972656	-0.13603300476074218	1.05618994140625	-0.04418330001831055	-0.12996800231933595	1.0895699462890625	-0.016160900115966798	-0.09464399719238281	1.0434000244140624	-0.025439599990844726	-0.1122740020751953	1.043030029296875	-0.03793170166015625	-0.13390499877929687	1.046	-0.05525189971923828	-0.12179299926757813	1.0754200439453125	-0.07819139862060547	-0.16856100463867188	1.0356099853515626	-0.07226129913330079	-0.14981100463867186	1.043300048828125	-0.06686260223388672	-0.13463299560546876	1.0505	-0.05783319854736328	-0.11153900146484375	1.0587099609375	-0.04250809860229492	-0.05700680160522461	1.0974000244140625
